<?xml version="1.0" encoding="iso-8859-1"?>
<!-- Generator: Adobe Illustrator 19.0.0, SVG Export Plug-In . SVG Version: 6.00 Build 0)  -->
<svg version="1.1" id="Layer_1" xmlns="http://www.w3.org/2000/svg" xmlns:xlink="http://www.w3.org/1999/xlink" x="0px" y="0px"
	 viewBox="0 0 512 512" style="enable-background:new 0 0 512 512;" xml:space="preserve">
<g>
	<g>
		<path d="M256,0C114.842,0,0,114.842,0,256s114.842,256,256,256s256-114.842,256-256S397.158,0,256,0z M115.089,132.403
			c-2.432-4.036-1.135-9.284,2.91-11.716c21.692-13.082,48.648-13.065,70.357,0.009c4.036,2.44,5.333,7.68,2.901,11.716
			c-1.596,2.662-4.429,4.13-7.313,4.13c-1.502,0-3.021-0.401-4.403-1.229c-16.256-9.805-36.463-9.813-52.744-0.008
			C122.769,137.737,117.513,136.439,115.089,132.403z M121.617,215.97c-3.123-3.524-2.79-8.917,0.742-12.041
			c3.533-3.123,8.934-2.79,12.041,0.742c4.864,5.504,11.87,8.661,19.2,8.661c7.339,0,14.344-3.157,19.2-8.67
			c3.115-3.533,8.525-3.857,12.041-0.751c3.533,3.115,3.874,8.508,0.76,12.049c-8.098,9.173-19.763,14.438-32,14.438
			C141.372,230.4,129.715,225.143,121.617,215.97z M344.704,355.925c-23.774,23.603-55.27,36.608-88.704,36.608
			c-33.425,0-64.922-12.996-88.695-36.599c-3.336-3.319-3.354-8.73-0.043-12.066c3.345-3.345,8.738-3.362,12.083-0.043
			c20.54,20.412,47.761,31.642,76.655,31.642s56.124-11.238,76.672-31.65c3.345-3.328,8.738-3.311,12.075,0.043
			C348.066,347.196,348.049,352.606,344.704,355.925z M390.4,215.962c-8.098,9.173-19.763,14.438-32,14.438
			s-23.902-5.265-32.009-14.438c-3.115-3.541-2.782-8.934,0.751-12.049c3.541-3.115,8.926-2.782,12.049,0.742
			c4.864,5.521,11.87,8.678,19.209,8.678c7.339,0,14.344-3.157,19.2-8.67c3.115-3.533,8.533-3.857,12.041-0.751
			C393.173,207.027,393.515,212.42,390.4,215.962z M396.058,132.412c-1.596,2.662-4.429,4.13-7.313,4.13
			c-1.502,0-3.021-0.401-4.403-1.229c-16.256-9.805-36.463-9.813-52.745-0.008c-4.028,2.432-9.284,1.135-11.708-2.901
			c-2.432-4.036-1.135-9.284,2.91-11.716c21.692-13.082,48.649-13.065,70.357,0.009C397.193,123.136,398.49,128.375,396.058,132.412
			z"/>
	</g>
</g>
<g>
</g>
<g>
</g>
<g>
</g>
<g>
</g>
<g>
</g>
<g>
</g>
<g>
</g>
<g>
</g>
<g>
</g>
<g>
</g>
<g>
</g>
<g>
</g>
<g>
</g>
<g>
</g>
<g>
</g>
</svg>
